PathFileType	4	(X/Y/Z)	/home/alexbeat/data/kuopio-gait-dataset/01/mocap/calib_static_markers.trc
DataRate	CameraRate	NumFrames	NumMarkers	Units	OrigDataRate	OrigDataStartFrame	OrigNumFrames
100.000000	100.000000	4	70	mm	100.000000	0	211
Frame#	Time	Pelvis1			Pelvis2			Pelvis3			Pelvis4			Torso1			Torso2			Torso3			Torso4			RFemur1			RFemur2			RFemur3			RFemur4			LFemur1			LFemur2			LFemur3			LFemur4			RTibia1			RTibia2			RTibia3			RTibia4			LTibia1			LTibia2			LTibia3			LTibia4			LFoot1			LFoot2			LFoot3			RFoot1			RFoot2			RFoot3			*30			*31			*32			*33			*34			*35			*36			*37			*38			Pelvis_RFemur_score			Pelvis_LFemur_score			RFemur_RTibia_score			RFemur_RTibia_sara			LFemur_LTibia_score			LFemur_LTibia_sara			RKnee			LKnee			RTibia_RFoot_score			LTibia_LFoot_score			USERMO0			USERMO1			USERMO2			USERMO3			USERMO4			USERMO5			USERMO6			USERMO7			USERMO8			USERMO9			USERMO10			USERMO11			USERMO12			USERMO13			USERMO14			USERMO15			USERMO16			USERMO17			USERMO18			USERMO19			USERMO20			
		X1	Y1	Z1	X2	Y2	Z2	X3	Y3	Z3	X4	Y4	Z4	X5	Y5	Z5	X6	Y6	Z6	X7	Y7	Z7	X8	Y8	Z8	X9	Y9	Z9	X10	Y10	Z10	X11	Y11	Z11	X12	Y12	Z12	X13	Y13	Z13	X14	Y14	Z14	X15	Y15	Z15	X16	Y16	Z16	X17	Y17	Z17	X18	Y18	Z18	X19	Y19	Z19	X20	Y20	Z20	X21	Y21	Z21	X22	Y22	Z22	X23	Y23	Z23	X24	Y24	Z24	X25	Y25	Z25	X26	Y26	Z26	X27	Y27	Z27	X28	Y28	Z28	X29	Y29	Z29	X30	Y30	Z30	X31	Y31	Z31	X32	Y32	Z32	X33	Y33	Z33	X34	Y34	Z34	X35	Y35	Z35	X36	Y36	Z36	X37	Y37	Z37	X38	Y38	Z38	X39	Y39	Z39	X40	Y40	Z40	X41	Y41	Z41	X42	Y42	Z42	X43	Y43	Z43	X44	Y44	Z44	X45	Y45	Z45	X46	Y46	Z46	X47	Y47	Z47	X48	Y48	Z48	X49	Y49	Z49	X50	Y50	Z50	X51	Y51	Z51	X52	Y52	Z52	X53	Y53	Z53	X54	Y54	Z54	X55	Y55	Z55	X56	Y56	Z56	X57	Y57	Z57	X58	Y58	Z58	X59	Y59	Z59	X60	Y60	Z60	X61	Y61	Z61	X62	Y62	Z62	X63	Y63	Z63	X64	Y64	Z64	X65	Y65	Z65	X66	Y66	Z66	X67	Y67	Z67	X68	Y68	Z68	X69	Y69	Z69	X70	Y70	Z70	

1	0	343.7849426269532	1027.444580078125	-307.196533203125	346.4146728515626	1030.208740234375	-226.4578399658203	314.5907897949219	916.0736083984375	-228.3842926025391	313.4714355468751	916.7061157226562	-298.1347961425781	501.3201599121095	1423.010620117188	-262.8233947753906	445.6620178222657	1440.395629882812	-91.83946228027341	439.8493652343751	1465.121826171875	-436.2188110351562	367.6873168945313	1491.118408203125	-254.4514923095703	397.4482727050782	647.4188842773438	-91.46604156494138	393.6373291015626	545.2089233398438	-101.7035980224609	421.9479980468751	592.3776245117188	-90.03607177734372	459.1600952148439	591.6587524414062	-85.3461990356445	421.4063110351562	668.8128662109375	-434.6708679199219	482.6670227050782	632.2872314453125	-433.9212341308593	422.3460693359376	563.1546630859375	-423.7117004394531	440.7104492187501	634.1937866210938	-434.8226318359375	377.0082092285156	363.6181640625	-93.27843475341794	396.0820617675781	419.2147827148438	-97.36424255371091	391.7590637207031	317.6499328613281	-91.90768432617185	338.6208190917969	366.4747314453125	-109.7587127685547	363.3395080566406	372.4898376464844	-426.6678466796875	405.0322875976562	350.4011840820312	-432.3748779296875	412.7763977050781	285.2523193359375	-424.1932373046875	429.9828186035156	394.6399536132812	-424.951171875	320.4410095214844	28.14409255981443	-335.3011779785156	555.3426513671875	23.28789901733395	-377.8080444335938	505.9720764160156	23.20138359069821	-421.9519348144531	331.5062255859375	26.51214790344236	-179.6437835693359	562.0139770507812	22.22922134399411	-118.2156524658203	506.0085144042969	20.99967193603513	-76.24826049804685	-1841.62744140625	615.1633911132814	-1498.048217773438	-1909.354736328125	704.5326538085939	-1584.298461914062	-1802.661499023438	662.8061523437501	-1626.975341796875	-1821.165771484375	658.3449707031251	-1628.145263671875	nan	nan	nan	nan	nan	nan	nan	nan	nan	nan	nan	nan	nan	nan	nan	452.3403625488282	904.1371459960938	-140.3040771484375	456.8985290527344	892.2592163085938	-375.8985900878906	416.8999633789062	461.2474670410156	-145.5995635986328	431.6494445800782	466.851318359375	-244.3469543457031	432.8175964355469	458.47607421875	-364.5989074707031	436.7760925292969	461.3895874023438	-264.7197570800781	416.8999938964844	461.2470092773438	-145.6000061035156	432.8179931640625	458.4760131835938	-364.5989990234375	357.470947265625	8.549729347228983	-222.2845458984375	337.6129150390625	18.591100692749	-373.2407836914062	-1.481834173202515	-0.7365151643753051	0.8920256495475768	0.4421459138393403	0.6214322447776794	-0.4308488070964813	-0.1000000014901161	0.1000000014901161	-0.1000000014901161	-0.02911147847771653	-1.385828495025635	0.0003515231364872289	0.4605852663516998	0.02487779408693311	-0.3783537447452545	-0.1000000014901161	0.1000000014901161	-0.1000000014901161	-1.399770021438599	-0.6349021792411803	1.074818253517151	0.3937131762504578	0.3360331058502197	-0.4277713000774384	-0.1000000014901161	0.1000000014901161	-0.1000000014901161	-2.506576538085938	-1.903220772743225	0.07447701692581161	0.3349358439445497	0.9913339018821716	-0.2539715468883514	-0.1000000014901161	0.1000000014901161	-0.1000000014901161	0.206275150179863	-2.238271236419678	-2.462965965270996	0.4043860733509065	0.5949930548667908	-0.09448359161615369	-0.1000000014901161	0.1000000014901161	-0.1000000014901161	-2.469465970993042	-0.02772718481719479	1.882118225097656	0.466509610414505	0.02324701473116872	-0.1247025728225708	-0.1000000014901161	0.1000000014901161	-0.1000000014901161	0.3345566689968112	2.320308923721313	-2.464694976806641	0.3882468342781067	0.3668234348297119	-0.09420819580554959	-0.1000000014901161	0.1000000014901161	-0.1000000014901161	
2	0.01	343.7547302246094	1027.441284179688	-307.1962890625	346.4002380371094	1030.203125	-226.4521942138672	314.5699462890626	916.0712890625	-228.4074554443359	313.4483337402344	916.69873046875	-298.15380859375	501.3060913085939	1422.991455078125	-262.7997741699218	445.6394042968751	1440.3720703125	-91.83977508544919	439.8298645019532	1465.118041992188	-436.2010192871094	367.7021484375001	1491.112182617188	-254.4613647460938	397.4168090820312	647.4152221679688	-91.50267028808591	393.6301574707032	545.2010498046875	-101.7071304321289	421.9328308105469	592.3678588867188	-90.04365539550778	459.1572570800782	591.654541015625	-85.35017395019528	421.4205017089844	668.80517578125	-434.6676635742188	482.6943969726562	632.305419921875	-433.9067687988281	422.3527526855469	563.1663208007812	-423.7044067382812	440.7217712402344	634.173828125	-434.8266296386719	377.0108032226562	363.6451416015625	-93.26654815673825	396.0760498046875	419.20849609375	-97.37359619140622	391.7522888183594	317.6566467285156	-91.8501052856445	338.6089477539062	366.4747009277344	-109.7711029052734	363.3374328613281	372.48095703125	-426.6603393554688	405.0346984863281	350.3915710449219	-432.36865234375	412.776123046875	285.2434997558594	-424.1888122558594	429.9867553710938	394.6291809082031	-424.9426574707031	320.4395141601562	28.14089202880857	-335.3072509765625	555.3603515625	23.28379058837887	-377.8035583496093	505.9678039550781	23.19498634338376	-421.9530944824218	331.5120239257812	26.51870346069334	-179.6511993408203	562.0193481445312	22.23221778869625	-118.2220916748047	506.0103454589844	21.00225257873532	-76.25109100341794	-1841.611572265625	615.2290039062501	-1498.127075195312	-1909.358032226562	704.5369262695314	-1584.283203125	-1802.658081054688	662.8386840820314	-1627.242797851562	-1821.189208984375	658.3337402343751	-1628.140869140625	673.3551635742186	994.5773315429688	3557.356689453125	669.4439086914061	971.51904296875	3552.794921875	nan	nan	nan	nan	nan	nan	nan	nan	nan	452.3107604980469	904.1165771484375	-140.3711242675781	456.8792419433594	892.2689819335938	-375.9212646484375	416.9197082519531	461.2220764160156	-145.5998687744141	431.7070922851562	466.77685546875	-244.3443908691406	432.8229064941406	458.4725646972656	-364.5849914550781	436.7705383300781	461.3883361816406	-264.7055053710938	416.9200134277344	461.2219848632812	-145.6000061035156	432.822998046875	458.4729919433594	-364.5849914550781	357.5001525878906	8.515706062316873	-222.1665954589844	337.6116027832031	18.58367538452146	-373.2458801269531	-1.482014536857605	-0.7366737723350524	0.8919495940208434	0.4421607553958893	0.621432900428772	-0.4308432340621948	-0.1000000014901161	0.1000000014901161	-0.1000000014901161	-0.02915015071630486	-1.385860204696655	0.0003922307514585537	0.4605892598628998	0.02487322315573689	-0.3783546686172484	-0.1000000014901161	0.1000000014901161	-0.1000000014901161	-1.399744987487793	-0.6349055767059325	1.074782013893127	0.3937138617038727	0.3360237777233124	-0.4277651906013489	-0.1000000014901161	0.1000000014901161	-0.1000000014901161	-2.506435871124268	-1.903123736381531	0.07441948354244217	0.3349145054817201	0.9913275241851807	-0.2539780735969543	-0.1000000014901161	0.1000000014901161	-0.1000000014901161	0.2067290544509888	-2.238627195358276	-2.462625503540039	0.404372274875641	0.5949841141700745	-0.0944995433092117	-0.1000000014901161	0.1000000014901161	-0.1000000014901161	-2.46946120262146	-0.02773350290954098	1.882087230682373	0.4665139317512512	0.02325106039643285	-0.1247081384062767	-0.1000000014901161	0.1000000014901161	-0.1000000014901161	0.3353954553604129	2.319219589233398	-2.465004205703735	0.3882390856742859	0.3668325841426849	-0.09418924897909162	-0.1000000014901161	0.1000000014901161	-0.1000000014901161	
3	0.02	343.7339782714844	1027.440673828125	-307.2110290527344	346.3896179199219	1030.187377929688	-226.4863433837891	314.5552978515626	916.0589599609375	-228.4050445556641	313.4444580078126	916.6873168945312	-298.1691589355469	501.2961425781251	1422.982055664062	-262.8191528320311	445.6219177246095	1440.350830078125	-91.82640838623044	439.8345947265626	1465.117553710938	-436.1952514648438	367.6914062500001	1491.11474609375	-254.44677734375	397.4184570312501	647.3910522460938	-91.50536346435544	393.6118469238282	545.1820678710938	-101.7255096435547	421.9403991699219	592.400634765625	-90.04036712646482	459.1485595703126	591.6768188476562	-85.36137390136716	421.4328613281251	668.8007202148438	-434.6722106933594	482.6681518554689	632.3094482421875	-433.8992004394531	422.3584289550782	563.1316528320312	-423.6958618164062	440.7095031738282	634.1641235351562	-434.8172302246094	377.0217895507812	363.6668395996094	-93.25326538085935	396.0651550292969	419.1914367675781	-97.3999328613281	391.7497253417969	317.6599426269531	-91.86906433105466	338.6027221679688	366.4703979492188	-109.7783889770508	363.3406372070312	372.4762573242188	-426.6687316894531	405.0317077636719	350.37451171875	-432.3424682617188	412.7716064453125	285.2303466796875	-424.1769409179688	429.9909057617188	394.6194152832031	-424.9493408203125	320.4461669921875	28.12200546264646	-335.3223266601562	555.3466186523438	23.28799057006832	-377.8016052246093	505.9742736816406	23.1876182556152	-421.9593811035156	331.4832458496094	26.5009136199951	-179.6390533447266	562.0128173828125	22.23645210266109	-118.2159576416016	506.0071411132812	21.00826835632321	-76.24974060058591	-1841.63037109375	615.1798706054689	-1498.154052734375	-1909.369750976562	704.5494384765626	-1584.310180664062	nan	nan	nan	-1821.188110351562	658.3303833007814	-1628.136596679688	nan	nan	nan	nan	nan	nan	nan	nan	nan	nan	nan	nan	nan	nan	nan	452.2857360839844	904.1250610351562	-140.3706359863281	456.8480834960939	892.2614135742188	-375.9360046386719	416.9161071777344	461.2244567871094	-145.6246032714844	431.6875915527344	466.7795715332031	-244.3714752197266	432.8298645019531	458.4676818847656	-364.5827331542969	436.767333984375	461.395751953125	-264.7031860351562	416.9159851074219	461.2239990234375	-145.625	432.8299865722656	458.4679870605469	-364.5830078125	357.479736328125	8.498764991760233	-222.1418151855469	337.5942993164062	18.57564544677732	-373.2213439941406	-1.482096552848816	-0.7368337512016295	0.8920185565948485	0.442155957221985	0.621421754360199	-0.4308377206325531	-0.1000000014901161	0.1000000014901161	-0.1000000014901161	-0.02916910313069828	-1.385916829109192	0.0005734860314987583	0.4605890512466431	0.02486587315797803	-0.3783611357212067	-0.1000000014901161	0.1000000014901161	-0.1000000014901161	-1.399987101554871	-0.634826898574829	1.074731349945068	0.3937126100063324	0.3360132873058319	-0.4277576208114624	-0.1000000014901161	0.1000000014901161	-0.1000000014901161	-2.506393194198608	-1.903204441070557	0.07455377280712112	0.3349016010761262	0.9913185238838196	-0.2539950609207153	-0.1000000014901161	0.1000000014901161	-0.1000000014901161	0.20680171251297	-2.238412380218506	-2.462645530700684	0.4043675959110261	0.5949854254722595	-0.094506099820137	-0.1000000014901161	0.1000000014901161	-0.1000000014901161	-2.469501256942749	-0.02769926376640782	1.882258772850037	0.4665010869503021	0.02324854582548138	-0.124701589345932	-0.1000000014901161	0.1000000014901161	-0.1000000014901161	0.3350684642791751	2.319160223007202	-2.465305805206299	0.3882379531860352	0.3668343424797058	-0.0942023769021034	-0.1000000014901161	0.1000000014901161	-0.1000000014901161	
4	0.03	343.7249755859376	1027.436157226562	-307.2111206054688	346.3530883789062	1030.202026367188	-226.4691619873047	314.5448303222657	916.0551147460938	-228.4069213867188	313.4153747558594	916.6898803710938	-298.1585388183594	501.2751770019532	1422.9755859375	-262.8125305175781	445.6051635742189	1440.34521484375	-91.81395721435544	439.8245239257813	1465.120239257812	-436.1856079101562	367.6943359375001	1491.1259765625	-254.4220123291016	397.4139404296876	647.4130859375	-91.49208831787107	393.6073303222657	545.202392578125	-101.7160568237305	421.9437561035157	592.400390625	-90.05280303955075	459.1208190917969	591.6824340820312	-85.37325286865232	421.4300842285157	668.8038330078125	-434.6743774414062	482.6806335449219	632.302734375	-433.8612976074218	422.3685302734376	563.1524047851562	-423.7217407226562	440.7335815429689	634.1785888671875	-434.8283996582031	377.0130310058594	363.6663513183594	-93.25575256347653	396.0672302246094	419.1996765136719	-97.39359283447263	391.7451782226562	317.6799011230469	-91.8557205200195	338.6007385253906	366.4712829589844	-109.7723922729492	363.333740234375	372.4596862792969	-426.655517578125	405.0486755371094	350.3819885253906	-432.3460693359375	412.78955078125	285.2232055664062	-424.1543273925781	429.9926147460938	394.6375732421875	-424.9502563476562	320.4234313964844	28.13649940490721	-335.3077087402344	555.3585815429688	23.27854347229	-377.7953796386718	505.9783325195312	23.19322586059567	-421.9536132812499	331.4852905273438	26.5090980529785	-179.6524963378906	562.02392578125	22.23150253295895	-118.2238311767578	506.0173950195312	21.01354408264157	-76.24282073974607	-1841.6376953125	615.1378784179689	-1498.113403320312	-1909.373291015625	704.5534667968751	-1584.31396484375	-1802.647827148438	662.8612060546876	-1627.407592773438	-1821.197631835938	658.3185424804689	-1628.137329101562	nan	nan	nan	nan	nan	nan	nan	nan	nan	nan	nan	nan	nan	nan	nan	452.2703247070312	904.1366577148438	-140.3543090820312	456.8250122070312	892.262939453125	-375.8954467773438	416.8992004394531	461.2340087890625	-145.6288909912109	431.6602478027344	466.7883911132812	-244.3773498535156	432.8057250976562	458.4760131835938	-364.6097106933594	436.7097473144531	461.4054870605469	-264.7289428710938	416.8989868164062	461.2340087890625	-145.6289978027344	432.8059997558594	458.4760131835938	-364.6099853515625	357.4887390136719	8.49646759033201	-222.1273956298828	337.6425476074219	18.58059310913084	-373.1787414550781	-1.48236346244812	-0.7374923229217528	0.8914045691490172	0.4421662688255311	0.6214295625686646	-0.4308383464813232	-0.1000000014901161	0.1000000014901161	-0.1000000014901161	-0.02910315431654461	-1.385917663574219	0.0003312962653581035	0.460586816072464	0.02486942335963246	-0.378352254629135	-0.1000000014901161	0.1000000014901161	-0.1000000014901161	-1.400014519691467	-0.6348412036895751	1.075101375579834	0.3937236964702606	0.3360113203525543	-0.4277459383010864	-0.1000000014901161	0.1000000014901161	-0.1000000014901161	-2.506418943405151	-1.90330708026886	0.0744475051760672	0.3348783850669861	0.9913212060928345	-0.2539884448051453	-0.1000000014901161	0.1000000014901161	-0.1000000014901161	0.2063309848308563	-2.238269329071045	-2.462623596191406	0.404358595609665	0.5949984788894653	-0.09450236707925794	-0.1000000014901161	0.1000000014901161	-0.1000000014901161	-2.469568252563477	-0.02745880931615814	1.882259964942932	0.4665088951587677	0.02325138263404366	-0.1247063875198364	-0.1000000014901161	0.1000000014901161	-0.1000000014901161	0.3351688981056216	2.319017648696899	-2.465330362319946	0.3882343471050262	0.3668419122695923	-0.094195581972599	-0.1000000014901161	0.1000000014901161	-0.1000000014901161	
